<?xml version="1.0" encoding="UTF-8"?>
<svg version="1.1" xmlns="http://www.w3.org/2000/svg" width="256" height="251">
<path d="M0 0 C84.48 0 168.96 0 256 0 C256 82.83 256 165.66 256 251 C171.52 251 87.04 251 0 251 C0 168.17 0 85.34 0 0 Z " fill="#FDFDFD" transform="translate(0,0)"/>
<path d="M0 0 C3.32571123 1.25958987 6.34000957 2.68086879 9.38671875 4.51171875 C10.22895996 5.01437256 11.07120117 5.51702637 11.93896484 6.03491211 C13.29948975 6.85294312 13.29948975 6.85294312 14.6875 7.6875 C23.04581085 12.67095893 31.43900901 17.58667874 39.875 22.4375 C48.33130189 27.30174998 56.7690177 32.19559877 65.1875 37.125 C74.05813426 42.31688923 82.98126511 47.40752273 91.94946289 52.42895508 C96.21028349 54.82252824 100.44144771 57.24078318 104.59765625 59.8125 C105.63104126 60.45094849 105.63104126 60.45094849 106.68530273 61.10229492 C107.92958047 61.87861773 109.16799888 62.66445894 110.39868164 63.4621582 C113.82803271 65.60735281 115.98313148 66.38830604 120 66 C122.42869057 64.98023658 122.42869057 64.98023658 124.82421875 63.46484375 C125.75669434 62.91062744 126.68916992 62.35641113 127.64990234 61.78540039 C128.65230957 61.17559326 129.6547168 60.56578613 130.6875 59.9375 C132.86018566 58.64240439 135.03338004 57.34816191 137.20703125 56.0546875 C138.32932129 55.38276367 139.45161133 54.71083984 140.60791016 54.01855469 C145.99827466 50.81087269 151.43640847 47.68747303 156.875 44.5625 C159.05739912 43.30487394 161.23969016 42.04706033 163.421875 40.7890625 C166.7115029 38.89405701 170.00125929 36.9992747 173.29101562 35.10449219 C202.30366315 18.60835816 202.30366315 18.60835816 230.8046875 1.2578125 C233 0 233 0 235 0 C233.85233926 2.75380132 232.35182903 4.82991817 230.44114685 7.08174133 C220.18982062 19.81813667 220.45611766 32.3548714 220.75294042 48.17110229 C220.80761537 51.66614686 220.80156146 55.16117177 220.80357361 58.65657043 C220.81550227 64.50948493 220.86861796 70.36079922 220.95043945 76.21313477 C221.04463416 82.96586476 221.08643554 89.71726908 221.0977698 96.47061652 C221.10993089 103.69860877 221.15261867 110.92614652 221.20823741 118.15392518 C221.22261408 120.22439585 221.23212795 122.29484551 221.24086189 124.36534691 C221.25952133 128.22080627 221.31329157 132.0753434 221.37133789 135.93041992 C221.37423828 137.0696843 221.37713867 138.20894867 221.38012695 139.38273621 C221.50544621 145.54623733 221.85385809 149.31848652 226 154 C228.47254749 156.16347905 231.02624763 157.61932925 234 159 C229.34569617 163.09578737 224.08234763 165.89073172 218.6875 168.875 C208.92740858 174.32388539 199.2543461 179.90534228 189.6315918 185.59326172 C188.19746948 186.43655029 188.19746948 186.43655029 186.734375 187.296875 C185.89100586 187.79541992 185.04763672 188.29396484 184.17871094 188.80761719 C182 190 182 190 179 191 C179 155.03 179 119.06 179 82 C169.83560845 86.58219577 161.00938028 91.19850357 152.25 96.4375 C150.15338946 97.69013596 148.05454828 98.93904854 145.953125 100.18359375 C145.04723633 100.72556396 144.14134766 101.26753418 143.20800781 101.82592773 C141 103 141 103 139 103 C139.0611699 115.1871445 139.13824641 127.37407412 139.23571491 139.56098557 C139.28047038 145.21967906 139.31971515 150.8782997 139.34643555 156.53710938 C139.37241677 161.9966845 139.41278254 167.45598001 139.46318626 172.91538239 C139.47989005 174.99977393 139.4913824 177.08421387 139.49761391 179.16866302 C139.50721675 182.08507199 139.53523042 185.00075988 139.56762695 187.91699219 C139.56619186 188.78158051 139.56475677 189.64616882 139.5632782 190.53695679 C139.6338436 195.01930504 139.78559053 197.60154942 143 201 C143 201.66 143 202.32 143 203 C145.97 203.99 148.94 204.98 152 206 C152 206.66 152 207.32 152 208 C151.37738281 208.29390625 150.75476563 208.5878125 150.11328125 208.890625 C144.85327414 211.44359916 139.75987619 214.11084074 134.73828125 217.10546875 C133.81426514 217.65235352 132.89024902 218.19923828 131.93823242 218.76269531 C130.0797206 219.86912516 128.22935973 220.9893761 126.38793945 222.12402344 C119.91914056 225.9597876 119.91914056 225.9597876 115.875 226.13671875 C111.95060144 224.58508834 108.45876279 222.59161015 104.875 220.375 C103.37398576 219.46567052 101.87268159 218.55681947 100.37109375 217.6484375 C99.63487793 217.19952148 98.89866211 216.75060547 98.14013672 216.28808594 C96.18376234 215.1106012 94.21258889 213.97113308 92.22265625 212.8515625 C90.59650391 211.93503906 90.59650391 211.93503906 88.9375 211 C87.49697266 210.195625 87.49697266 210.195625 86.02734375 209.375 C85.35832031 208.92125 84.68929687 208.4675 84 208 C84 207.34 84 206.68 84 206 C84.53109375 205.79246094 85.0621875 205.58492187 85.609375 205.37109375 C86.31578125 205.06300781 87.0221875 204.75492188 87.75 204.4375 C88.79414063 204.00244141 88.79414063 204.00244141 89.859375 203.55859375 C93.46030631 200.93674778 95.598707 197.24782088 96.37657928 192.89061165 C96.52919404 190.50597642 96.56029192 188.14950044 96.54589844 185.76000977 C96.56140495 184.41248375 96.56140495 184.41248375 96.57722473 183.03773499 C96.60656003 180.08877376 96.60814995 177.14050166 96.609375 174.19140625 C96.62436289 172.13873493 96.64109132 170.08607564 96.65948486 168.03343201 C96.703102 162.64616327 96.72314508 157.2590572 96.73822021 151.87164307 C96.75781153 146.36810714 96.79977933 140.86474636 96.83984375 135.36132812 C96.9150849 124.57427285 96.96541336 113.78725689 97 103 C96.23710159 102.86599792 95.47420319 102.73199585 94.68818665 102.59393311 C91.24973457 101.83423492 88.71575736 100.33917907 85.66796875 98.578125 C85.07252762 98.2362616 84.47708649 97.89439819 83.86360168 97.54217529 C81.96772073 96.45130058 80.07770737 95.35066985 78.1875 94.25 C76.92938789 93.52543112 75.67092726 92.80146703 74.41210938 92.078125 C68.19741508 88.49462364 62.08695582 84.80434739 56 81 C56 116.97 56 152.94 56 190 C51.71202106 189.14240421 49.75505043 188.50390596 46.17578125 186.3671875 C45.24121094 185.81498535 44.30664062 185.2627832 43.34375 184.69384766 C42.3434375 184.09362793 41.343125 183.4934082 40.3125 182.875 C38.17362714 181.60861456 36.03428642 180.34301906 33.89453125 179.078125 C32.77643066 178.41490234 31.65833008 177.75167969 30.50634766 177.06835938 C25.11433706 173.87930145 19.68297966 170.75811831 14.25326538 167.6338501 C12.51126747 166.63148344 10.769828 165.62815345 9.02856445 164.62451172 C6.35272924 163.08239374 3.67653754 161.54089856 1 160 C2.51934706 156.96130589 4.98004772 156.35589694 8 155 C8.66 155 9.32 155 10 155 C10.309375 154.21625 10.61875 153.4325 10.9375 152.625 C12 150 12 150 13 148 C13.11810828 146.35818964 13.17448305 144.71177267 13.20100403 143.06593323 C13.21972061 142.02204437 13.23843719 140.97815552 13.25772095 139.90263367 C13.28060684 138.17687859 13.28060684 138.17687859 13.30395508 136.41625977 C13.32337662 135.20778381 13.34279816 133.99930786 13.36280823 132.75421143 C13.53212576 121.55146327 13.63001193 110.34768914 13.70387745 99.14393711 C13.75951017 90.87968515 13.85373939 82.61781048 13.99953538 74.35464817 C14.09882275 68.5276622 14.15075239 62.70131861 14.16973227 56.87352604 C14.18238009 53.40355295 14.21478366 49.93665093 14.29932594 46.46762276 C14.70145295 29.25407751 13.35724488 17.11345126 2.19593334 3.50199795 C1 2 1 2 0 0 Z " fill="#030303" transform="translate(13,15)"/>
<path d="M0 0 C0.66 0 1.32 0 2 0 C2 30.69 2 61.38 2 93 C0.515 93.495 0.515 93.495 -1 94 C-0.67 62.98 -0.34 31.96 0 0 Z " fill="#121212" transform="translate(110,118)"/>
<path d="M0 0 C-1.65167557 3.5786304 -3.78286492 6.74820188 -6 10 C-6.66 9.01 -7.32 8.02 -8 7 C-8.66 7.66 -9.32 8.32 -10 9 C-12.92341206 10.3492671 -14.75207316 11 -18 11 C-15.28423427 7.91434503 -11.91344172 5.92712681 -8.4375 3.8125 C-7.84775391 3.44447266 -7.25800781 3.07644531 -6.65039062 2.69726562 C-2.25169585 0 -2.25169585 0 0 0 Z " fill="#3C3C3C" transform="translate(248,15)"/>
<path d="M0 0 C0.66 0.99 1.32 1.98 2 3 C1.01 3.33 0.02 3.66 -1 4 C-1.12375 4.598125 -1.2475 5.19625 -1.375 5.8125 C-2.3148946 9.10213111 -4.16647935 10.22081262 -7 12 C-9.3125 11.75 -9.3125 11.75 -11 11 C-11 10.34 -11 9.68 -11 9 C-10.45730469 8.76925781 -9.91460937 8.53851563 -9.35546875 8.30078125 C-4.81386724 6.23046561 -2.11687258 4.76296329 0 0 Z " fill="#2E2E2E" transform="translate(108,212)"/>
<path d="M0 0 C0.66 0.33 1.32 0.66 2 1 C-2.03084689 5.45514656 -6.05465225 7.30868049 -12 8 C-9.72254211 5.51017465 -7.37664762 3.89631003 -4.4375 2.25 C-3.65246094 1.80140625 -2.86742187 1.3528125 -2.05859375 0.890625 C-1.37925781 0.59671875 -0.69992188 0.3028125 0 0 Z " fill="#2C2C2C" transform="translate(228,26)"/>
<path d="M0 0 C5 2.45614035 5 2.45614035 7 4 C7.33 4.99 7.66 5.98 8 7 C4.00499382 5.6302836 1.19990508 3.74277578 -2 1 C-1.34 0.67 -0.68 0.34 0 0 Z " fill="#2A2A2A" transform="translate(76,97)"/>
<path d="M0 0 C3.96 1.98 7.92 3.96 12 6 C7.23374833 7.19156292 6.12120649 6.3415946 2 4 C2 3.34 2 2.68 2 2 C1.34 2 0.68 2 0 2 C0 1.34 0 0.68 0 0 Z " fill="#1F1F1F" transform="translate(75,51)"/>
<path d="M0 0 C3.37503669 1.1858237 5.64722731 2.27573689 8 5 C7.01 5.99 6.02 6.98 5 8 C2.525 4.04 2.525 4.04 0 0 Z " fill="#393939" transform="translate(13,15)"/>
<path d="M0 0 C0.8971875 0.309375 0.8971875 0.309375 1.8125 0.625 C-0.4426922 2.8801922 -2.1922587 3.60223468 -5.1875 4.625 C-6.1775 4.625 -7.1675 4.625 -8.1875 4.625 C-3.2421875 -0.55580357 -3.2421875 -0.55580357 0 0 Z " fill="#2A2A2A" transform="translate(238.1875,21.375)"/>
<path d="M0 0 C5.53846154 0.61538462 5.53846154 0.61538462 7.875 2.5625 C8.431875 3.2740625 8.431875 3.2740625 9 4 C8.01 4.495 8.01 4.495 7 5 C4.5249829 3.88568235 2.32116581 2.41849022 0 1 C0 0.67 0 0.34 0 0 Z " fill="#252525" transform="translate(35,186)"/>
<path d="M0 0 C-0.33 0.99 -0.66 1.98 -1 3 C-4.5625 4.6875 -4.5625 4.6875 -8 6 C-6.72879117 2.18637351 -4.19078006 0 0 0 Z " fill="#161616" transform="translate(146,231)"/>
<path d="M0 0 C0.99 0 1.98 0 3 0 C3.33 1.65 3.66 3.3 4 5 C4.66 5 5.32 5 6 5 C5.67 6.32 5.34 7.64 5 9 C3.35 6.03 1.7 3.06 0 0 Z " fill="#222222" transform="translate(21,27)"/>
</svg>
